<svg xmlns="http://www.w3.org/2000/svg" xmlns:xlink="http://www.w3.org/1999/xlink" width="659" height="423" viewBox="0 0 659 423">
  <defs>
    <clipPath id="clip-path">
      <rect id="Rectangle_2164" data-name="Rectangle 2164" width="650.295" height="418.551" fill="none"/>
    </clipPath>
    <clipPath id="clip-logo_5">
      <rect width="659" height="423"/>
    </clipPath>
  </defs>
  <g id="logo_5" clip-path="url(#clip-logo_5)">
    <g id="Group_34" data-name="Group 34" transform="translate(4 2)">
      <g id="Group_33" data-name="Group 33" clip-path="url(#clip-path)">
        <path id="Path_55" data-name="Path 55" d="M262.763,79.127a79.127,79.127,0,1,0-158.254,0c0,14.37,3.544,29.409,9.1,44.2a122.292,122.292,0,0,0,25.6-15.967,142.364,142.364,0,0,0,18.7-18.37l-18.118-12.5c-3.051-2.1-1.931-7.36,1.878-8.823l71.388-27.372a4.2,4.2,0,0,1,5.7,3.935l-.244,76.455c-.012,4.077-4.534,6.99-7.58,4.888L192.121,112.6a164.183,164.183,0,0,1-56.394,28.672c-.562.11-1.124.228-1.686.375q-2.566.66-5.214,1.242a172.125,172.125,0,0,1-62.1,1.576c-4.171-.664-12.232-2.5-12.232-2.5s6.819,2.929,10.582,4.191c18.427,6.24,40.594,8.7,62.765,7.768,13.466,24.5,29.963,46.227,41.511,60.231a18.482,18.482,0,0,0,28.509.065c22.782-27.6,64.9-85.363,64.9-135.089" transform="translate(167.486)" fill="#f36711"/>
      </g>
    </g>
  </g>
</svg>
